<?xml version="1.0" standalone="no"?>
<!DOCTYPE svg PUBLIC "-//W3C//DTD SVG 20010904//EN"
 "http://www.w3.org/TR/2001/REC-SVG-20010904/DTD/svg10.dtd">
<svg version="1.0" xmlns="http://www.w3.org/2000/svg"
 width="2471.000000pt" height="2471.000000pt" viewBox="0 0 2471.000000 2471.000000"
 preserveAspectRatio="xMidYMid meet">
<metadata>
Created by potrace 1.11, written by Peter Selinger 2001-2013
</metadata>
<g transform="translate(0.000000,2471.000000) scale(0.100000,-0.100000)"
fill="#000000" stroke="none">
<path d="M11995 24699 c-3783 -114 -7251 -1916 -9532 -4954 -2083 -2776 -2891
-6338 -2217 -9780 394 -2009 1302 -3914 2620 -5496 580 -695 1255 -1345 1973
-1897 1601 -1231 3478 -2050 5456 -2381 383 -64 907 -126 1285 -153 249 -17
1228 -17 1490 0 635 42 1155 109 1725 223 2683 535 5144 1977 6930 4063 1680
1962 2696 4367 2925 6921 38 425 44 595 45 1115 0 523 -7 699 -46 1125 -154
1716 -667 3380 -1506 4885 -1273 2283 -3265 4125 -5638 5215 -1304 599 -2734
968 -4180 1080 -285 22 -437 29 -880 39 -88 2 -290 0 -450 -5z m-1477 -3281
c198 -50 199 -375 2 -482 -97 -53 -262 -47 -339 11 -53 41 -74 101 -69 197 7
136 72 226 190 267 61 21 149 24 216 7z m-1253 -719 c149 -55 243 -220 284
-494 17 -117 49 -859 54 -1275 l2 -114 -27 -14 c-15 -7 -78 -15 -140 -19 -142
-7 -188 4 -244 61 -77 76 -88 152 -104 716 -13 438 -20 505 -58 580 -35 71
-74 93 -153 87 -141 -12 -216 -100 -256 -304 -20 -106 -28 -625 -14 -938 6
-132 8 -250 5 -262 -8 -28 -46 -39 -165 -48 -208 -17 -297 62 -329 292 -5 39
-21 330 -35 645 -14 315 -29 653 -34 750 -5 98 -7 187 -4 198 6 23 17 27 136
40 190 20 301 -39 346 -185 l19 -60 25 57 c67 150 163 240 307 287 113 36 288
36 385 0z m1126 1 c79 -23 138 -83 161 -164 17 -61 13 -216 -16 -561 -42 -499
-105 -1160 -112 -1178 -9 -25 -45 -31 -153 -24 -120 8 -183 29 -232 78 -83 83
-87 182 -29 827 22 246 51 574 64 730 16 185 29 289 38 299 11 13 31 15 128
10 63 -3 131 -11 151 -17z m1589 -111 c311 -74 449 -305 381 -636 -27 -131
-70 -212 -161 -304 -59 -61 -93 -85 -160 -117 -149 -72 -379 -102 -602 -79
l-78 8 0 -84 c0 -186 84 -294 239 -305 83 -6 112 7 198 89 34 33 70 59 80 59
31 -1 97 -36 130 -71 75 -79 87 -195 33 -305 -52 -105 -143 -167 -292 -198
-133 -28 -290 -18 -428 25 -124 39 -190 78 -276 164 -94 94 -141 180 -175 320
-30 126 -24 347 15 519 105 472 330 790 638 902 128 47 297 52 458 13z m1095
-245 c201 -58 268 -126 269 -269 l1 -70 53 52 c75 74 163 115 256 121 153 10
319 -52 418 -156 109 -115 143 -223 135 -432 -7 -162 -31 -281 -98 -484 -88
-269 -200 -471 -345 -625 -168 -179 -360 -260 -547 -231 -83 12 -177 53 -230
99 -48 43 -96 141 -110 229 l-12 71 -57 -152 c-32 -84 -85 -226 -118 -317 -97
-265 -134 -353 -152 -364 -22 -13 -148 22 -238 67 -90 45 -123 93 -128 189 -3
39 1 96 8 127 14 63 111 340 420 1191 116 322 241 666 277 765 73 203 79 215
96 215 7 0 53 -12 102 -26z m-5852 -66 c-76 -181 -110 -387 -100 -603 4 -71
23 -251 42 -400 37 -278 55 -575 41 -686 l-7 -55 -157 -69 c-1063 -466 -1825
-1155 -2257 -2040 -313 -641 -460 -1376 -442 -2200 6 -275 26 -465 72 -690
242 -1192 1061 -2123 2215 -2520 262 -90 526 -148 815 -181 83 -9 151 -17 152
-18 1 0 70 -879 154 -1951 84 -1073 156 -1954 161 -1959 5 -6 502 -3 1310 7
1352 18 1552 16 1958 -18 1106 -95 2059 -376 3224 -952 126 -63 231 -111 234
-108 3 3 249 786 547 1740 l541 1734 -43 11 c-116 29 -385 115 -529 168 -328
123 -551 223 -1259 570 -507 247 -676 326 -934 432 -755 311 -1501 488 -2336
555 -228 18 -776 36 -865 28 -39 -4 -60 -2 -60 5 0 6 16 37 35 69 19 33 57
110 85 172 27 63 56 124 65 137 19 29 64 53 135 72 77 20 677 28 950 13 1434
-81 2800 -503 4165 -1286 259 -148 453 -270 885 -555 223 -147 432 -283 465
-302 115 -69 111 -68 399 -68 143 0 329 5 411 10 890 60 1402 431 1596 1157
53 198 70 348 76 652 8 382 -20 702 -103 1189 -19 112 -34 208 -34 213 0 16
221 145 738 430 453 250 603 339 807 475 253 168 392 280 575 464 193 193 281
303 428 540 15 24 15 24 40 -40 190 -504 320 -929 417 -1365 72 -324 118 -624
146 -950 16 -180 16 -653 0 -815 -84 -876 -376 -1544 -911 -2081 -343 -344
-739 -598 -1257 -807 -661 -267 -1512 -423 -2463 -450 l-224 -7 -772 -2320
c-424 -1276 -775 -2319 -781 -2318 -6 1 -250 161 -544 356 -759 502 -1046 681
-1434 894 -1020 560 -1970 854 -3060 948 -248 22 -873 30 -1168 16 -292 -14
-475 -32 -717 -72 -391 -63 -685 -142 -1378 -370 -395 -130 -822 -260 -929
-284 l-33 -7 0 114 c-1 62 -14 1011 -29 2108 -27 1903 -29 1998 -48 2051 -33
98 -84 170 -208 295 -146 147 -232 216 -675 537 -674 490 -975 738 -1293 1067
-775 800 -1193 1679 -1312 2752 -105 948 55 1917 469 2845 660 1480 2003 2811
3661 3628 176 87 365 174 377 175 3 0 -9 -37 -29 -82z m8218 3 c160 -61 208
-179 134 -329 -59 -117 -135 -167 -256 -167 -69 1 -84 4 -155 40 -51 26 -89
54 -109 78 -27 35 -30 46 -30 110 1 135 83 245 215 288 39 13 140 3 201 -20z
m-439 -591 c120 -52 180 -96 207 -152 27 -57 28 -139 0 -221 -28 -85 -685
-1378 -741 -1459 -11 -16 -29 -28 -40 -28 -39 0 -212 90 -256 133 -56 55 -78
123 -63 199 20 110 10 88 486 1018 276 541 281 550 300 550 7 0 56 -18 107
-40z m1190 -584 c146 -26 312 -112 420 -217 110 -108 158 -239 138 -382 -25
-173 -139 -357 -280 -452 -86 -58 -151 -82 -265 -97 -144 -19 -378 30 -564
118 -72 34 -97 41 -103 32 -22 -34 -48 -146 -48 -207 0 -81 22 -133 77 -182
86 -77 175 -86 287 -29 72 37 96 37 137 3 76 -64 100 -192 55 -290 -100 -215
-386 -249 -695 -82 -189 102 -311 245 -358 422 -26 98 -21 269 11 382 68 233
257 532 452 715 239 223 482 311 736 266z m1280 -797 c83 -65 148 -130 171
-174 36 -69 29 -162 -21 -257 -2 -4 21 4 52 18 82 37 164 50 240 37 163 -28
337 -172 395 -329 73 -195 1 -432 -225 -737 -336 -452 -757 -700 -1074 -633
-148 31 -283 125 -336 232 -34 70 -43 181 -20 264 8 30 13 56 12 58 -3 2 -118
-122 -435 -471 -85 -93 -159 -171 -166 -174 -19 -7 -50 12 -130 77 -162 132
-183 242 -77 400 47 69 248 300 737 845 143 160 354 396 469 525 241 271 326
360 342 360 7 0 36 -19 66 -41z m1620 -1411 c73 -83 104 -134 119 -188 17 -65
5 -130 -37 -191 -19 -28 -34 -53 -34 -55 0 -2 12 2 28 8 15 6 77 12 137 12
135 0 198 -21 279 -95 89 -81 121 -185 92 -299 -37 -142 -151 -265 -325 -348
-94 -45 -206 -55 -292 -27 -60 20 -134 87 -163 148 l-18 39 29 30 c15 16 52
48 82 71 99 77 142 154 108 198 -56 73 -207 38 -389 -88 -90 -63 -618 -472
-788 -612 -47 -38 -84 -61 -100 -61 -28 0 -112 84 -169 169 -30 45 -36 64 -39
121 -4 60 -1 75 24 120 36 66 148 172 350 330 87 68 329 258 536 422 208 163
396 311 419 328 64 46 86 41 151 -32z m985 -1239 c15 -5 41 -22 57 -37 24 -24
575 -832 605 -889 6 -12 8 -28 5 -37 -6 -16 -179 -122 -249 -153 -36 -16 -100
-18 -685 -24 -355 -4 -655 -11 -666 -16 -20 -7 -10 -25 152 -268 108 -160 174
-268 172 -280 -4 -24 -71 -70 -192 -130 -108 -55 -169 -60 -228 -20 -26 18
-125 157 -363 510 -182 271 -324 492 -321 500 6 16 91 72 191 126 108 58 145
61 594 53 272 -4 465 -3 616 6 121 6 222 14 224 16 2 1 -65 104 -148 228 -83
124 -154 232 -157 240 -7 18 66 67 204 138 95 49 136 57 189 37z"/>
<path d="M11635 20132 c-75 -47 -142 -151 -191 -296 -36 -105 -41 -99 89 -93
126 5 184 22 241 69 50 41 76 98 76 171 0 64 -16 112 -49 141 -32 29 -126 33
-166 8z"/>
<path d="M13341 19744 c-92 -46 -177 -175 -245 -373 -109 -313 -100 -536 24
-598 166 -84 340 67 454 396 98 283 98 490 -1 559 -71 49 -154 55 -232 16z"/>
<path d="M15952 18633 c-59 -30 -143 -108 -215 -201 l-49 -62 49 -22 c116 -51
253 -63 329 -29 102 46 163 186 119 272 -38 72 -137 90 -233 42z"/>
<path d="M17479 17630 c-178 -53 -466 -364 -545 -587 -41 -116 -29 -190 39
-250 68 -60 181 -58 299 3 135 71 357 319 439 492 36 74 48 161 30 215 -7 19
-32 53 -55 75 -60 55 -135 74 -207 52z"/>
</g>
</svg>
